<svg width="258" height="295" viewBox="0 0 258 295" fill="none" xmlns="http://www.w3.org/2000/svg">
<g opacity="0.9">
<path opacity="0.9" d="M127.189 71.6611L41.2403 100.741L256.208 172.395L256.856 172.604V199.09L256.208 199.298L128.447 247.254L0 202.102V174.485L129.248 218.557L215.883 185.856L1.98198 114.549L0 113.888V87.6289L0.952873 87.298L129.362 45.8899L256.856 89.0567V115.96L127.189 71.6611Z" fill="#ED1C24"/>
<path opacity="0.9" d="M102.986 265.241L0.266724 236.022V294.46L102.986 265.241Z" fill="#ED1C24"/>
<path opacity="0.9" d="M154.518 265.503L257.619 236.005V295L154.518 265.503Z" fill="#ED1C24"/>
<path opacity="0.9" d="M102.377 29.4518L0.266724 0.197998V58.7231L102.377 29.4518Z" fill="#ED1C24"/>
<path opacity="0.9" d="M154.48 29.8003L258 0.215576V59.4024L154.48 29.8003Z" fill="#ED1C24"/>
</g>
</svg>
