<svg width="141" height="142" viewBox="0 0 141 142" fill="none" xmlns="http://www.w3.org/2000/svg">
<path d="M67.3701 141.403C65.1573 140.828 64.6372 139.19 64.6372 137.176C64.6372 131.932 64.6372 126.687 64.6372 121.443C64.6372 118.039 63.9697 117.386 60.6246 117.368C58.5076 117.368 56.3906 117.408 54.2774 117.338C53.3738 117.305 52.3411 117.25 51.6219 116.8C50.9027 116.35 50.2094 115.402 50.2278 114.69C50.25 113.908 51.0023 113.049 51.633 112.422C52.0018 112.053 52.7394 111.968 53.3258 111.965C56.3132 111.965 59.3227 111.791 62.2842 112.083C67.1968 112.569 70.0108 115.8 70.0993 120.768C70.1731 124.998 70.0993 129.232 70.1251 133.466C70.1251 135.734 70.2911 135.897 72.5593 135.9C78.4062 135.9 84.2494 135.9 90.0888 135.9C91.9993 135.9 92.2316 135.661 92.239 133.739C92.239 129.83 92.1984 125.917 92.2685 122.007C92.2432 120.536 92.4295 119.069 92.8217 117.652C93.7806 114.664 95.9197 112.794 99.0472 112.245C100.407 112.016 101.784 111.902 103.163 111.902C112.686 111.876 122.209 111.902 131.735 111.902C134.91 111.902 135.585 111.245 135.585 108.133C135.585 96.8618 135.585 85.5909 135.585 74.3201C135.585 71.9781 135.438 71.838 133.059 71.8343C127.217 71.8343 121.375 71.8343 115.533 71.8343C113.479 71.8343 113.221 72.0961 113.213 74.1467C113.213 78.2036 113.213 82.2605 113.213 86.2916C113.213 88.7074 112.476 89.6368 110.053 89.6921C105.273 89.8027 100.489 89.8027 95.7021 89.6921C93.2569 89.6368 92.3496 88.5635 92.298 85.9376C92.2206 82.0282 92.2685 78.1151 92.2574 74.2057C92.2574 72.0187 92.0694 71.8306 89.9007 71.8306C83.9678 71.8306 78.0337 71.8306 72.0983 71.8306C70.1104 71.8306 69.8854 72.0593 69.8854 74.0693C69.8854 78.0709 69.8854 82.0725 69.8854 86.0741C69.8854 88.7516 69.1478 89.681 66.5219 89.7105C59.2956 89.7917 52.0731 89.7917 44.8543 89.7105C42.2246 89.681 41.251 88.5635 41.2178 85.8823C41.1698 81.9286 41.2178 77.9713 41.192 74.014C41.192 72.0777 40.9522 71.8343 39.0639 71.8306C32.9933 71.8158 26.9215 71.8158 20.8484 71.8306C19.1039 71.8306 18.8273 72.1035 18.8236 73.8369C18.8236 85.0635 18.8236 96.2889 18.8236 107.513C18.8265 108.157 18.8944 108.8 19.0265 109.431C19.3326 110.969 20.203 111.758 21.7741 111.85C23.0576 111.924 24.3558 111.872 25.6355 111.898C26.3258 111.89 27.0158 111.928 27.7009 112.012C29.2683 112.252 30.2826 113.285 30.3194 114.594C30.321 114.942 30.253 115.287 30.1194 115.608C29.9859 115.929 29.7895 116.221 29.5417 116.465C29.294 116.709 29 116.901 28.6769 117.031C28.3538 117.16 28.0082 117.223 27.6603 117.216C25.0086 117.261 22.2941 117.309 19.7125 116.803C16.4485 116.165 14.5196 113.816 13.8668 110.534C13.6708 109.495 13.5757 108.44 13.5828 107.384C13.5656 95.2845 13.5656 83.1838 13.5828 71.0819C13.5711 70.5305 13.5908 69.9788 13.6418 69.4296C13.8557 67.5598 14.6302 66.7004 16.5075 66.4607C17.6957 66.3371 18.8908 66.2928 20.085 66.3279C21.2873 66.3279 21.8147 65.8374 21.87 64.6056C22.0802 59.8111 22.0175 60.0102 17.8131 57.967C7.03275 52.7483 0.737162 44.2288 0.0585507 32.1577C-0.623748 19.8025 4.66868 10.2651 15.331 4.20922C25.9933 -1.84664 36.8695 -1.32293 47.0487 5.48899C55.8374 11.3568 60.3812 19.9685 60.3037 30.5238C60.2189 41.6914 55.0998 50.3621 45.5845 56.2852C43.7404 57.4433 41.6382 58.251 39.6061 59.0956C38.555 59.5345 38.0792 60.1651 38.1087 61.2752C38.1382 62.3854 38.1087 63.5729 38.1087 64.7236C38.1087 65.8042 38.6103 66.3316 39.7057 66.3279C40.9006 66.3279 42.1029 66.2984 43.2905 66.4054C45.6288 66.6119 46.3553 67.4159 46.3701 69.7616C46.3922 73.8554 46.3701 77.9492 46.3701 82.0429C46.3701 84.0456 46.595 84.2558 48.5829 84.2558C53.2299 84.2558 57.8769 84.2558 62.524 84.2558C64.3348 84.2558 64.5819 83.994 64.5893 82.1536C64.6077 78.2885 64.5893 74.4086 64.5893 70.5582C64.6114 67.4122 65.5593 66.4644 68.7089 66.3279C70.7927 66.2357 70.9734 66.0845 71.4565 64.0192C72.1425 61.0687 72.1425 61.0687 69.1589 60.6999C66.9718 60.4122 66.1014 59.5013 65.9982 57.2552C65.9281 55.78 65.965 54.3047 65.965 52.8295C65.965 42.5692 65.965 32.3089 65.965 22.0486C65.965 21.4511 65.965 20.8536 65.965 20.2562C66.0904 17.8368 67.0124 16.7119 69.4428 16.7119C73.319 16.7119 72.8027 16.2361 72.8433 12.95C72.8617 11.6149 72.8101 10.2798 72.8912 8.94843C73.0203 6.85359 73.8649 5.80248 75.9265 5.71397C79.4118 5.56644 82.9155 5.57382 86.4044 5.71397C88.3038 5.78035 89.0562 6.76876 89.0967 8.70502C89.1373 10.774 89.1373 12.8431 89.1152 14.9158C89.1152 16.1402 89.661 16.6787 90.8781 16.6455C91.7054 16.6134 92.5339 16.6442 93.3565 16.7377C95.2006 16.9811 95.9382 17.8146 95.9972 19.6624C96.0341 20.625 95.9972 21.5949 95.9972 22.5612C95.9972 33.9698 95.9972 45.3783 95.9972 56.7868C95.9972 59.8738 95.3112 60.5856 92.2353 60.7663C90.288 60.8806 90.1479 61.0613 90.5904 62.9201C90.6642 63.2336 90.7453 63.5434 90.8228 63.8569C91.4166 66.2099 91.4166 66.2099 93.8138 66.3574C96.6205 66.5271 97.3692 67.3053 97.3765 70.1083C97.3765 74.1098 97.3765 78.1151 97.3765 82.1167C97.3765 84.0345 97.6199 84.2632 99.5267 84.2779C101.692 84.2779 103.853 84.2411 106.014 84.2779C107.382 84.3074 107.902 83.7026 107.891 82.3675C107.851 78.779 107.891 75.1905 107.891 71.6019C107.891 70.9565 107.891 70.3111 107.95 69.673C108.183 67.4196 109.005 66.6009 111.27 66.3869C112.092 66.3095 112.922 66.3353 113.748 66.3058C114.438 66.2837 114.821 66.0218 114.523 65.2658C113.375 62.4181 113.339 59.2436 114.419 56.3701C114.626 55.78 114.471 54.9981 114.298 54.3527C113.53 51.4649 112.822 48.5587 111.86 45.7225C110.834 42.6282 110.812 39.5154 111.082 36.3215C111.469 31.6967 111.672 27.057 112.004 22.4248C112.262 18.7846 114.216 16.8557 117.923 16.6824C120.309 16.5717 122.717 16.6381 125.1 16.6344C127.029 16.6344 128.965 16.5791 130.894 16.675C134.645 16.8594 136.493 18.4969 136.883 22.2072C137.252 25.8621 137.426 29.5391 137.658 33.2088C137.794 35.3184 137.971 37.4317 137.96 39.5449C137.981 41.0466 137.819 42.5452 137.477 44.0075C136.592 47.4854 135.5 50.908 134.564 54.3711C134.342 55.0682 134.333 55.8154 134.538 56.5176C135.106 57.9059 135.387 59.3948 135.363 60.8946C135.34 62.3944 135.012 63.8738 134.401 65.2436C134.309 65.5544 134.237 65.8711 134.188 66.1915C135.154 66.2431 136.032 66.3169 136.906 66.3279C138.875 66.3501 140.435 66.9512 140.992 69.0645V109.103C140.911 109.416 140.804 109.718 140.745 110.036C140.007 114.214 137.544 116.619 133.347 117.176C132.299 117.304 131.245 117.365 130.19 117.36C120.49 117.36 110.79 117.36 101.094 117.36C98.719 117.36 97.7564 118.238 97.465 120.58C97.3949 121.266 97.3654 121.956 97.3765 122.645C97.3765 127.609 97.3175 132.574 97.3987 137.538C97.4319 139.485 96.886 140.857 94.8908 141.388L67.3701 141.403ZM30.017 55.2894C42.9549 55.7062 55.0961 45.2394 55.1404 30.4906C55.1883 15.8304 43.2167 5.66971 30.4301 5.47055C17.0865 5.26402 5.11863 16.4611 5.21821 30.2214C5.31779 44.3247 16.0575 55.2858 30.017 55.2894ZM90.8707 38.693C90.8707 33.8173 90.8707 28.9416 90.8707 24.0697C90.8707 22.4211 90.5794 22.1334 88.9234 22.1297C83.6838 22.11 78.4418 22.11 73.1973 22.1297C71.5672 22.1297 71.2758 22.4284 71.2721 24.0918C71.2721 33.8382 71.2721 43.5871 71.2721 53.3384C71.2721 54.9833 71.5709 55.271 73.2195 55.2784C78.4172 55.2931 83.6138 55.2931 88.8091 55.2784C90.6199 55.2784 90.8707 55.0165 90.8744 53.1762C90.8633 48.3521 90.856 43.5281 90.8523 38.6967L90.8707 38.693ZM124.432 38.7188C126.594 38.7188 128.755 38.7188 130.912 38.7188C132.587 38.7188 132.893 38.3094 132.757 36.6092C132.672 35.6503 132.627 34.684 132.568 33.7214L131.923 23.959C131.849 22.7678 131.314 22.115 130.024 22.115C126.336 22.1445 122.673 22.115 118.996 22.115C117.945 22.115 117.381 22.5538 117.318 23.6566C117.053 28.1487 116.787 32.6371 116.466 37.1255C116.378 38.3832 116.927 38.7409 118.07 38.7188C120.184 38.693 122.297 38.7336 124.41 38.7336L124.432 38.7188ZM124.584 66.3206C125.31 66.3327 126.032 66.2016 126.708 65.9347C127.384 65.6679 128 65.2706 128.523 64.7654C129.045 64.2603 129.462 63.6572 129.752 62.9907C130.041 62.3241 130.196 61.6071 130.208 60.8806C130.22 60.1541 130.089 59.4324 129.822 58.7565C129.555 58.0807 129.158 57.4641 128.653 56.9418C128.148 56.4195 127.545 56.0019 126.878 55.7127C126.212 55.4234 125.495 55.2684 124.768 55.2563C121.427 55.2194 119.022 57.5208 119.015 60.7663C119.007 64.0118 121.338 66.3058 124.562 66.3243L124.584 66.3206ZM131.901 45.0033C131.499 44.7525 131.078 44.2657 130.654 44.2657C126.561 44.2067 122.467 44.2251 118.373 44.2362C117.55 44.2362 117.174 44.664 117.399 45.4828C117.812 46.9924 118.243 48.496 118.69 49.9933C118.93 50.8084 119.461 51.0998 120.276 50.7752C123.044 49.6724 126.13 49.6724 128.899 50.7752C129.268 50.908 130.131 50.6277 130.238 50.34C130.846 48.6914 131.296 47.006 131.901 45.0033ZM81.3038 66.3206H83.7859C86.0282 66.3206 86.1168 66.1989 85.5857 64.0524C84.778 60.7626 84.778 60.7331 81.4255 60.7663C77.2874 60.7884 77.8554 60.2868 76.7637 64.6167C76.7637 64.6609 76.7637 64.7089 76.7342 64.7531C76.4502 65.8596 76.9334 66.3095 77.9992 66.3095C79.0651 66.3095 80.2047 66.3206 81.3038 66.3206ZM29.9322 60.663C29.7293 60.6446 29.4122 60.6077 29.0913 60.5856C27.4575 60.4712 27.1145 60.7626 27.0739 62.378C27.0352 63.2483 27.0463 64.1201 27.1071 64.9892C27.2731 66.7853 28.7188 66.3538 29.7552 66.2911C30.8616 66.2284 32.5102 67.0287 32.8421 65.0076C32.8932 64.5053 32.9056 63.9997 32.879 63.4955C32.8864 60.6888 32.8827 60.6888 29.9322 60.663ZM81.053 16.6418C83.9186 16.6418 83.9555 16.6049 83.9555 13.8536C83.9555 11.1023 83.9113 11.0728 81.0382 11.0728C78.1652 11.0728 78.1431 11.1318 78.1394 13.7208C78.132 16.6049 78.1615 16.6418 81.053 16.6418Z" fill="white"/>
<path d="M42.7151 114.642C42.6901 115.298 42.412 115.918 41.9393 116.373C41.4665 116.829 40.8358 117.083 40.1796 117.083C39.5233 117.083 38.8926 116.829 38.4199 116.373C37.9471 115.918 37.669 115.298 37.644 114.642C37.631 114.301 37.6869 113.961 37.8085 113.642C37.9301 113.323 38.1147 113.032 38.3515 112.786C38.5882 112.54 38.8721 112.344 39.1862 112.21C39.5004 112.077 39.8382 112.008 40.1796 112.008C40.5209 112.008 40.8588 112.077 41.1729 112.21C41.487 112.344 41.7709 112.54 42.0077 112.786C42.2444 113.032 42.4291 113.323 42.5506 113.642C42.6722 113.961 42.7281 114.301 42.7151 114.642Z" fill="white"/>
<path d="M38.1013 30.4206C38.1013 35.488 34.2436 38.8626 29.0028 38.3869C24.5328 37.9959 21.2246 33.5702 22.1687 28.9785C22.4969 27.3447 22.1281 26.3194 20.9664 25.2351C19.3952 23.7599 17.9606 22.1371 16.5407 20.5217C15.2129 19.0243 15.4895 17.1213 17.0607 16.3099C17.5019 16.049 18.02 15.9495 18.5266 16.0282C19.0331 16.1069 19.4965 16.359 19.8378 16.7414C21.5196 18.449 23.2346 20.1013 24.8241 21.8826C25.6245 22.7825 26.2994 23.1144 27.5423 22.7383C33.0228 21.0823 38.1013 24.822 38.1013 30.4206ZM32.8236 30.4611C32.8236 28.8347 31.7172 27.7098 30.0797 27.6766C29.7189 27.672 29.3607 27.7385 29.0255 27.8724C28.6904 28.0062 28.3849 28.2047 28.1265 28.4566C27.8682 28.7085 27.6619 29.0088 27.5196 29.3404C27.3772 29.672 27.3016 30.0284 27.297 30.3892C27.2924 30.7501 27.3589 31.1083 27.4928 31.4434C27.6266 31.7785 27.8251 32.084 28.077 32.3424C28.3289 32.6008 28.6292 32.807 28.9608 32.9493C29.2924 33.0917 29.6488 33.1673 30.0096 33.1719C31.6877 33.1719 32.8236 32.095 32.8236 30.4611Z" fill="white"/>
<path d="M41.9997 16.4316C42.6744 16.4227 43.325 16.6817 43.809 17.1519C44.2929 17.622 44.5707 18.2649 44.5814 18.9395C44.5476 19.6095 44.2635 20.2423 43.7855 20.7129C43.3074 21.1835 42.6701 21.4574 41.9997 21.4806C41.3469 21.4556 40.7291 21.1787 40.276 20.708C39.8229 20.2373 39.5699 19.6094 39.5699 18.9561C39.5699 18.3028 39.8229 17.6749 40.276 17.2041C40.7291 16.7334 41.3469 16.4565 41.9997 16.4316Z" fill="white"/>
<path d="M20.9479 42.3331C20.9479 43.8084 20.0185 44.7304 18.5175 44.7341C17.0164 44.7378 15.9358 43.694 15.9579 42.2594C15.9801 40.8247 17.0865 39.8142 18.5913 39.8547C20.096 39.8953 20.9627 40.8247 20.9479 42.3331Z" fill="white"/>
<path d="M43.8585 42.2299C43.8917 43.7383 43.0176 44.6825 41.535 44.7341C40.0524 44.7857 38.9128 43.7973 38.8722 42.3626C38.859 42.0279 38.9156 41.694 39.0384 41.3823C39.1612 41.0706 39.3475 40.7878 39.5854 40.552C39.8233 40.3161 40.1077 40.1323 40.4205 40.0123C40.7333 39.8923 41.0676 39.8386 41.4022 39.8547C42.9107 39.84 43.829 40.7399 43.8585 42.2299Z" fill="white"/>
<path d="M49.103 30.8816C49.1247 31.2041 49.0799 31.5277 48.9712 31.8322C48.8626 32.1367 48.6924 32.4156 48.4714 32.6515C48.2503 32.8874 47.9831 33.0754 47.6863 33.2036C47.3896 33.3318 47.0696 33.3976 46.7463 33.3969C45.4407 33.3969 44.1646 32.2609 44.1167 31.0402C44.1096 30.3681 44.357 29.7182 44.8091 29.2209C45.2613 28.7236 45.8848 28.4157 46.5545 28.3589C46.8882 28.3545 47.2195 28.4166 47.529 28.5415C47.8385 28.6664 48.12 28.8516 48.3572 29.0864C48.5944 29.3212 48.7825 29.6008 48.9105 29.909C49.0386 30.2172 49.104 30.5478 49.103 30.8816Z" fill="white"/>
<path d="M13.4758 32.8658C13.1557 32.8624 12.8394 32.796 12.5449 32.6703C12.2504 32.5447 11.9836 32.3623 11.7596 32.1335C11.3073 31.6715 11.057 31.0487 11.0638 30.4021C11.0707 29.7556 11.3341 29.1382 11.7961 28.6859C12.2581 28.2335 12.8809 27.9833 13.5275 27.9901C13.8611 27.981 14.1928 28.0419 14.5015 28.1688C14.8101 28.2957 15.0887 28.4858 15.3194 28.7269C15.5501 28.9681 15.7277 29.2548 15.8409 29.5687C15.954 29.8827 16.0002 30.2168 15.9764 30.5497C15.9358 32.0028 14.9769 32.8916 13.4758 32.8658Z" fill="white"/>
<path d="M32.7757 13.8942C32.7871 14.3977 32.6468 14.8931 32.3731 15.3159C32.0993 15.7387 31.7048 16.0695 31.2407 16.2652C30.7766 16.4609 30.2643 16.5125 29.7705 16.4134C29.2766 16.3143 28.824 16.0689 28.4714 15.7093C28.1187 15.3496 27.8824 14.8922 27.793 14.3965C27.7037 13.9008 27.7654 13.3897 27.9702 12.9295C28.1751 12.4694 28.5135 12.0814 28.9417 11.8161C29.3698 11.5507 29.8678 11.4203 30.3711 11.4416C31.0129 11.4551 31.6239 11.7193 32.0734 12.1777C32.5228 12.6361 32.7749 13.2522 32.7757 13.8942Z" fill="white"/>
</svg>
