<svg width="90" height="90" viewBox="0 0 90 90" fill="none" xmlns="http://www.w3.org/2000/svg">
<path d="M43.0046 90C41.5921 89.6338 41.2601 88.5916 41.2601 87.3099C41.2601 83.9719 41.2601 80.6339 41.2601 77.2959C41.2601 75.1292 40.834 74.7137 38.6987 74.702C37.3474 74.702 35.9961 74.7278 34.6471 74.6832C34.0703 74.6621 33.4111 74.6269 32.952 74.3405C32.4929 74.0541 32.0503 73.4508 32.0621 72.9978C32.0762 72.5001 32.5565 71.9532 32.9591 71.5541C33.1945 71.3194 33.6654 71.2654 34.0397 71.2631C35.9466 71.2631 37.8677 71.1527 39.7581 71.3382C42.894 71.648 44.6903 73.7044 44.7468 76.8663C44.7939 79.5588 44.7468 82.2536 44.7632 84.9484C44.7632 86.392 44.8692 86.4953 46.3171 86.4977C50.0493 86.4977 53.7792 86.4977 57.5068 86.4977C58.7263 86.4977 58.8746 86.3451 58.8793 85.1221C58.8793 82.6339 58.8534 80.1433 58.8981 77.655C58.882 76.7188 59.0009 75.7852 59.2512 74.8828C59.8633 72.9814 61.2288 71.7912 63.2252 71.4415C64.0934 71.2961 64.9722 71.223 65.8525 71.2232C71.9312 71.2067 78.0098 71.2232 84.0909 71.2232C86.1179 71.2232 86.5487 70.8053 86.5487 68.8241C86.5487 61.6505 86.5487 54.4768 86.5487 47.3031C86.5487 45.8125 86.4545 45.7233 84.936 45.721C81.2069 45.721 77.4778 45.721 73.7487 45.721C72.4374 45.721 72.2726 45.8877 72.2679 47.1928C72.2679 49.775 72.2679 52.3571 72.2679 54.9228C72.2679 56.4604 71.797 57.0519 70.2503 57.0871C67.1992 57.1575 64.1457 57.1575 61.0899 57.0871C59.529 57.0519 58.9499 56.3688 58.9169 54.6975C58.8675 52.2092 58.8981 49.7186 58.8911 47.2304C58.8911 45.8384 58.771 45.7187 57.3867 45.7187C53.5995 45.7187 49.8115 45.7187 46.0228 45.7187C44.7538 45.7187 44.6102 45.8642 44.6102 47.1435C44.6102 49.6904 44.6102 52.2374 44.6102 54.7843C44.6102 56.4885 44.1394 57.0801 42.4632 57.0988C37.8504 57.1505 33.24 57.1505 28.632 57.0988C26.9534 57.0801 26.3319 56.3688 26.3107 54.6622C26.2801 52.1458 26.3107 49.6271 26.2942 47.1083C26.2942 45.8759 26.1412 45.721 24.9358 45.7187C21.0607 45.7093 17.1849 45.7093 13.3082 45.7187C12.1947 45.7187 12.0181 45.8924 12.0158 46.9956C12.0158 54.1411 12.0158 61.2858 12.0158 68.4297C12.0176 68.8399 12.061 69.2489 12.1452 69.6504C12.3406 70.6293 12.8962 71.1316 13.8991 71.1903C14.7184 71.2372 15.5471 71.2044 16.364 71.2208C16.8046 71.2156 17.2451 71.2399 17.6824 71.2936C18.683 71.4462 19.3304 72.1034 19.3539 72.9368C19.3549 73.1582 19.3115 73.3776 19.2262 73.5821C19.141 73.7865 19.0156 73.972 18.8575 74.1274C18.6994 74.2829 18.5117 74.4053 18.3054 74.4875C18.0992 74.5696 17.8786 74.6098 17.6565 74.6058C15.9638 74.6339 14.2311 74.6644 12.5831 74.3428C10.4996 73.9367 9.26836 72.4415 8.85165 70.3523C8.72652 69.6914 8.66581 69.0201 8.67038 68.3476C8.65939 60.6466 8.65939 52.9447 8.67038 45.2421C8.6629 44.8912 8.67547 44.54 8.70805 44.1905C8.84459 43.0004 9.33898 42.4534 10.5373 42.3008C11.2958 42.2222 12.0587 42.194 12.8209 42.2163C13.5884 42.2163 13.925 41.9041 13.9604 41.1201C14.0946 38.0685 14.0545 38.1952 11.3707 36.8948C4.48925 33.5732 0.470555 28.1507 0.0373749 20.4677C-0.39816 12.6039 2.98018 6.53351 9.78629 2.67908C16.5924 -1.17535 23.5351 -0.84202 30.0328 3.49363C35.6429 7.22834 38.5433 12.7095 38.4939 19.4278C38.4398 26.5357 35.1721 32.0544 29.0981 35.8244C27.921 36.5614 26.5791 37.0755 25.2819 37.6131C24.6109 37.8924 24.3072 38.2938 24.3261 39.0004C24.3449 39.707 24.3261 40.4628 24.3261 41.1952C24.3261 41.883 24.6463 42.2187 25.3455 42.2163C26.1082 42.2163 26.8757 42.1976 27.6338 42.2656C29.1264 42.3971 29.5902 42.9088 29.5996 44.4018C29.6137 47.0074 29.5996 49.613 29.5996 52.2186C29.5996 53.4932 29.7432 53.627 31.0121 53.627C33.9785 53.627 36.9448 53.627 39.9112 53.627C41.0671 53.627 41.2248 53.4604 41.2295 52.289C41.2413 49.8289 41.2295 47.3595 41.2295 44.9088C41.2437 42.9065 41.8487 42.3032 43.8592 42.2163C45.1894 42.1576 45.3047 42.0614 45.6131 40.7469C46.051 38.8689 46.051 38.8689 44.1464 38.6342C42.7504 38.4511 42.1948 37.8713 42.1289 36.4417C42.0841 35.5028 42.1077 34.5638 42.1077 33.6248C42.1077 27.0944 42.1077 20.5639 42.1077 14.0335C42.1077 13.6532 42.1077 13.2729 42.1077 12.8926C42.1877 11.3527 42.7763 10.6368 44.3277 10.6368C46.802 10.6368 46.4724 10.334 46.4983 8.24242C46.5101 7.39266 46.4771 6.5429 46.5289 5.69549C46.6113 4.36216 47.1504 3.69316 48.4665 3.63682C50.6912 3.54292 52.9278 3.54762 55.1549 3.63682C56.3673 3.67907 56.8476 4.30818 56.8735 5.54056C56.8994 6.85745 56.8994 8.17434 56.8852 9.49358C56.8852 10.2729 57.2337 10.6156 58.0106 10.5945C58.5386 10.5741 59.0675 10.5937 59.5926 10.6532C60.7697 10.8081 61.2406 11.3386 61.2783 12.5147C61.3018 13.1274 61.2783 13.7447 61.2783 14.3597C61.2783 21.621 61.2783 28.8823 61.2783 36.1436C61.2783 38.1084 60.8404 38.5614 58.8769 38.6765C57.6339 38.7492 57.5444 38.8642 57.8269 40.0473C57.874 40.2469 57.9258 40.444 57.9753 40.6436C58.3543 42.1412 58.3543 42.1412 59.8845 42.2351C61.6761 42.3431 62.154 42.8384 62.1587 44.6224C62.1587 47.1693 62.1587 49.7186 62.1587 52.2655C62.1587 53.4862 62.3141 53.6317 63.5313 53.6411C64.9132 53.6411 66.2928 53.6177 67.6724 53.6411C68.5458 53.6599 68.8777 53.2749 68.8707 52.4252C68.8448 50.1412 68.8707 47.8571 68.8707 45.5731C68.8707 45.1623 68.8707 44.7515 68.9083 44.3454C69.0567 42.9112 69.5817 42.39 71.0272 42.2539C71.5522 42.2046 72.0819 42.221 72.6092 42.2022C73.0495 42.1882 73.2943 42.0215 73.1036 41.5403C72.3714 39.7278 72.3479 37.7073 73.0377 35.8784C73.1695 35.5028 73.0706 35.0051 72.96 34.5943C72.4703 32.7563 72.0183 30.9066 71.4038 29.1014C70.7494 27.1319 70.7352 25.1507 70.9071 23.1179C71.1543 20.1742 71.2838 17.2212 71.4957 14.2729C71.6605 11.956 72.9082 10.7283 75.2742 10.618C76.7974 10.5476 78.3347 10.5898 79.8556 10.5875C81.0868 10.5875 82.3228 10.5523 83.5541 10.6133C85.9483 10.7307 87.1278 11.7729 87.3774 14.1344C87.6128 16.4607 87.7234 18.801 87.8718 21.1367C87.9589 22.4794 88.0719 23.8245 88.0648 25.1695C88.0782 26.1253 87.9746 27.0791 87.7564 28.0099C87.1914 30.2235 86.4945 32.4019 85.8966 34.6061C85.7553 35.0498 85.7496 35.5253 85.8801 35.9722C86.2426 36.8559 86.4218 37.8035 86.4068 38.7581C86.3919 39.7127 86.183 40.6543 85.793 41.5262C85.7339 41.724 85.6883 41.9255 85.6564 42.1295C86.2732 42.1623 86.8335 42.2093 87.3915 42.2163C88.6487 42.2304 89.6445 42.613 90 43.9581V69.4415C89.9482 69.641 89.8799 69.8335 89.8423 70.0354C89.3714 72.695 87.7988 74.2255 85.1197 74.5799C84.4511 74.6613 83.778 74.7005 83.1044 74.6973C76.9128 74.6973 70.7211 74.6973 64.5318 74.6973C63.0157 74.6973 62.4012 75.256 62.2152 76.7466C62.1705 77.1833 62.1516 77.6222 62.1587 78.0611C62.1587 81.2207 62.1211 84.3803 62.1729 87.5399C62.194 88.7794 61.8456 89.6526 60.572 89.9906L43.0046 90ZM19.1609 35.1906C27.4196 35.4558 35.1697 28.7939 35.198 19.4066C35.2286 10.0757 27.5867 3.60865 19.4246 3.48189C10.9069 3.35044 3.26739 10.4771 3.33096 19.2353C3.39452 28.2117 10.2501 35.1882 19.1609 35.1906ZM58.0059 24.6273C58.0059 21.524 58.0059 18.4207 58.0059 15.3198C58.0059 14.2705 57.8199 14.0874 56.7628 14.0851C53.4182 14.0726 50.0721 14.0726 46.7243 14.0851C45.6838 14.0851 45.4978 14.2752 45.4954 15.3339C45.4954 21.5373 45.4954 27.7423 45.4954 33.9488C45.4954 34.9957 45.6861 35.1788 46.7385 35.1835C50.0564 35.1929 53.3735 35.1929 56.6898 35.1835C57.8458 35.1835 58.0059 35.0169 58.0082 33.8455C58.0011 30.7751 57.9964 27.7047 57.9941 24.6296L58.0059 24.6273ZM79.4295 24.6437C80.809 24.6437 82.1886 24.6437 83.5658 24.6437C84.6347 24.6437 84.8301 24.3831 84.743 23.301C84.6888 22.6907 84.6606 22.0756 84.6229 21.463L84.2109 15.2494C84.1638 14.4912 83.8225 14.0757 82.9985 14.0757C80.6442 14.0945 78.3065 14.0757 75.9593 14.0757C75.2883 14.0757 74.9281 14.355 74.8881 15.0569C74.7186 17.916 74.5491 20.7728 74.3443 23.6296C74.2878 24.4301 74.6386 24.6578 75.3684 24.6437C76.7174 24.6273 78.0663 24.6531 79.4153 24.6531L79.4295 24.6437ZM79.526 42.2116C79.9897 42.2193 80.4505 42.1359 80.8819 41.9661C81.3133 41.7962 81.7069 41.5433 82.0403 41.2218C82.3736 40.9003 82.6403 40.5165 82.8249 40.0922C83.0095 39.668 83.1085 39.2116 83.1162 38.7492C83.1239 38.2868 83.0402 37.8274 82.8699 37.3973C82.6996 36.9671 82.446 36.5747 82.1235 36.2422C81.801 35.9098 81.4161 35.644 80.9906 35.4599C80.5651 35.2758 80.1074 35.1771 79.6437 35.1694C77.5107 35.146 75.9758 36.6107 75.9711 38.6765C75.9664 40.7422 77.4542 42.2022 79.5118 42.214L79.526 42.2116ZM84.1968 28.6437C83.9402 28.484 83.6718 28.1742 83.4011 28.1742C80.7878 28.1366 78.1746 28.1484 75.5614 28.1554C75.0364 28.1554 74.7963 28.4277 74.9399 28.9488C75.2036 29.9097 75.4783 30.8667 75.7639 31.8197C75.9169 32.3385 76.2559 32.5239 76.7762 32.3173C78.5434 31.6155 80.5132 31.6155 82.2804 32.3173C82.5159 32.4019 83.0668 32.2234 83.135 32.0404C83.5235 30.9911 83.8107 29.9183 84.1968 28.6437ZM51.899 42.2116H53.4834C54.9147 42.2116 54.9712 42.1342 54.6322 40.768C54.1166 38.6741 54.1166 38.6553 51.9766 38.6765C49.3352 38.6905 49.6977 38.3713 49.0009 41.1271C49.0009 41.1553 49.0009 41.1858 48.982 41.214C48.8008 41.9182 49.1092 42.2046 49.7896 42.2046C50.4699 42.2046 51.1974 42.2116 51.899 42.2116ZM19.1067 38.6107C18.9772 38.599 18.7748 38.5755 18.57 38.5614C17.527 38.4887 17.3081 38.6741 17.2822 39.7023C17.2575 40.2562 17.2646 40.8111 17.3034 41.3642C17.4093 42.5074 18.3322 42.2328 18.9937 42.1929C19.7 42.153 20.7523 42.6623 20.9642 41.376C20.9969 41.0562 21.0047 40.7345 20.9878 40.4135C20.9925 38.6272 20.9901 38.6272 19.1067 38.6107ZM51.7389 10.5922C53.5681 10.5922 53.5917 10.5687 53.5917 8.81753C53.5917 7.06637 53.5634 7.04759 51.7295 7.04759C49.8955 7.04759 49.8814 7.08515 49.879 8.73302C49.8743 10.5687 49.8931 10.5922 51.7389 10.5922Z" fill="white"/>
</svg>
