<svg width="90" height="103" viewBox="0 0 90 103" fill="none" xmlns="http://www.w3.org/2000/svg">
<mask id="path-1-inside-1_41_302" fill="white">
<path d="M88.4525 69.3482L81.6629 65.4308L86.8857 64.0246C88.5329 63.5826 89.5171 61.875 89.0752 60.2277L88.2717 57.2344C87.8298 55.5871 86.1223 54.6027 84.4752 55.0446L70.2531 58.8616L57.4172 51.4286L70.233 44.0156L84.4551 47.8326C86.1022 48.2746 87.8097 47.2902 88.2516 45.6429L89.0551 42.6496C89.4971 41.0022 88.5128 39.2946 86.8656 38.8527L81.6428 37.4464L88.4324 33.529C89.9189 32.6652 90.4211 30.7768 89.5774 29.2902L86.4638 23.9062C85.6001 22.4196 83.7118 21.9174 82.2253 22.7612L75.4357 26.6786L76.8419 21.4554C77.2838 19.808 76.2995 18.1004 74.6523 17.6585L71.6593 16.8549C70.0121 16.4129 68.3046 17.3973 67.8627 19.0446L64.0461 33.2679L51.4311 40.5402V24.971L62.2181 14.183C63.4635 12.9375 63.4635 10.8884 62.2181 9.64286L59.9482 7.37277C58.7028 6.12723 56.6538 6.12723 55.4084 7.37277L51.4311 11.3304V3.21429C51.4311 1.44643 49.9847 0 48.217 0H41.789C40.0213 0 38.575 1.44643 38.575 3.21429V11.3304L34.6177 7.37277C33.3723 6.12723 31.3234 6.12723 30.0779 7.37277L27.788 9.64286C26.5224 10.8884 26.5224 12.9375 27.788 14.183L38.575 24.971V40.5402L25.96 33.2679L22.1433 19.0446C21.7014 17.3973 19.994 16.4129 18.3468 16.8549L15.3537 17.6585C13.7065 18.1004 12.7223 19.808 13.1642 21.4554L14.5703 26.6786L7.78071 22.7612C6.29422 21.8973 4.40599 22.4196 3.54222 23.9062L0.428645 29.2701C-0.435122 30.7567 0.0871559 32.6451 1.57364 33.5089L8.36325 37.4263L3.14047 38.8326C1.4732 39.2746 0.488908 40.9821 0.930835 42.6496L1.73434 45.6429C2.17627 47.2902 3.88371 48.2746 5.5309 47.8326L19.7529 44.0156L32.5688 51.4286L19.7529 58.8415L5.5309 55.0246C3.88371 54.5826 2.17627 55.567 1.73434 57.2143L0.930835 60.2076C0.488908 61.8549 1.4732 63.5625 3.12038 64.0045L8.34316 65.4107L1.55355 69.3482C0.0670683 70.2121 -0.435122 72.1004 0.408558 73.5871L3.52214 78.971C4.3859 80.4576 6.27414 80.9598 7.76062 80.1161L14.5502 76.1987L13.1441 81.4219C12.7022 83.0692 13.6865 84.7768 15.3336 85.2188L18.3267 86.0223C19.9739 86.4643 21.6813 85.4799 22.1233 83.8326L25.9399 69.6094L38.5549 62.337V77.9062L27.7679 88.6942C26.5023 89.9397 26.5023 91.9888 27.7679 93.2344L30.0378 95.5045C31.2832 96.75 33.3321 96.75 34.5776 95.5045L38.5348 91.5469V99.6429C38.5348 101.411 39.9811 102.857 41.7488 102.857H48.1769C49.9446 102.857 51.3909 101.411 51.3909 99.6429V91.5268L55.3481 95.4844C56.5936 96.7299 58.6425 96.7299 59.8879 95.4844L62.1578 93.2143C63.4033 91.9688 63.4033 89.9196 62.1578 88.6741L51.4311 77.8862V62.317L64.0461 69.5893L67.8627 83.8125C68.3046 85.4598 70.0121 86.4442 71.6593 86.0022L74.6523 85.1987C76.2995 84.7567 77.2838 83.0491 76.8419 81.4018L75.4357 76.1786L82.2253 80.096C83.7118 80.9598 85.6001 80.4375 86.4638 78.9509L89.5774 73.567C90.4412 72.1004 89.939 70.192 88.4525 69.3482Z"/>
</mask>
<path d="M88.4525 69.3482L81.6629 65.4308L86.8857 64.0246C88.5329 63.5826 89.5171 61.875 89.0752 60.2277L88.2717 57.2344C87.8298 55.5871 86.1223 54.6027 84.4752 55.0446L70.2531 58.8616L57.4172 51.4286L70.233 44.0156L84.4551 47.8326C86.1022 48.2746 87.8097 47.2902 88.2516 45.6429L89.0551 42.6496C89.4971 41.0022 88.5128 39.2946 86.8656 38.8527L81.6428 37.4464L88.4324 33.529C89.9189 32.6652 90.4211 30.7768 89.5774 29.2902L86.4638 23.9062C85.6001 22.4196 83.7118 21.9174 82.2253 22.7612L75.4357 26.6786L76.8419 21.4554C77.2838 19.808 76.2995 18.1004 74.6523 17.6585L71.6593 16.8549C70.0121 16.4129 68.3046 17.3973 67.8627 19.0446L64.0461 33.2679L51.4311 40.5402V24.971L62.2181 14.183C63.4635 12.9375 63.4635 10.8884 62.2181 9.64286L59.9482 7.37277C58.7028 6.12723 56.6538 6.12723 55.4084 7.37277L51.4311 11.3304V3.21429C51.4311 1.44643 49.9847 0 48.217 0H41.789C40.0213 0 38.575 1.44643 38.575 3.21429V11.3304L34.6177 7.37277C33.3723 6.12723 31.3234 6.12723 30.0779 7.37277L27.788 9.64286C26.5224 10.8884 26.5224 12.9375 27.788 14.183L38.575 24.971V40.5402L25.96 33.2679L22.1433 19.0446C21.7014 17.3973 19.994 16.4129 18.3468 16.8549L15.3537 17.6585C13.7065 18.1004 12.7223 19.808 13.1642 21.4554L14.5703 26.6786L7.78071 22.7612C6.29422 21.8973 4.40599 22.4196 3.54222 23.9062L0.428645 29.2701C-0.435122 30.7567 0.0871559 32.6451 1.57364 33.5089L8.36325 37.4263L3.14047 38.8326C1.4732 39.2746 0.488908 40.9821 0.930835 42.6496L1.73434 45.6429C2.17627 47.2902 3.88371 48.2746 5.5309 47.8326L19.7529 44.0156L32.5688 51.4286L19.7529 58.8415L5.5309 55.0246C3.88371 54.5826 2.17627 55.567 1.73434 57.2143L0.930835 60.2076C0.488908 61.8549 1.4732 63.5625 3.12038 64.0045L8.34316 65.4107L1.55355 69.3482C0.0670683 70.2121 -0.435122 72.1004 0.408558 73.5871L3.52214 78.971C4.3859 80.4576 6.27414 80.9598 7.76062 80.1161L14.5502 76.1987L13.1441 81.4219C12.7022 83.0692 13.6865 84.7768 15.3336 85.2188L18.3267 86.0223C19.9739 86.4643 21.6813 85.4799 22.1233 83.8326L25.9399 69.6094L38.5549 62.337V77.9062L27.7679 88.6942C26.5023 89.9397 26.5023 91.9888 27.7679 93.2344L30.0378 95.5045C31.2832 96.75 33.3321 96.75 34.5776 95.5045L38.5348 91.5469V99.6429C38.5348 101.411 39.9811 102.857 41.7488 102.857H48.1769C49.9446 102.857 51.3909 101.411 51.3909 99.6429V91.5268L55.3481 95.4844C56.5936 96.7299 58.6425 96.7299 59.8879 95.4844L62.1578 93.2143C63.4033 91.9688 63.4033 89.9196 62.1578 88.6741L51.4311 77.8862V62.317L64.0461 69.5893L67.8627 83.8125C68.3046 85.4598 70.0121 86.4442 71.6593 86.0022L74.6523 85.1987C76.2995 84.7567 77.2838 83.0491 76.8419 81.4018L75.4357 76.1786L82.2253 80.096C83.7118 80.9598 85.6001 80.4375 86.4638 78.9509L89.5774 73.567C90.4412 72.1004 89.939 70.192 88.4525 69.3482Z" stroke="white" stroke-width="6" mask="url(#path-1-inside-1_41_302)"/>
</svg>
