<svg width="75" height="90" viewBox="0 0 75 90" fill="none" xmlns="http://www.w3.org/2000/svg">
<path d="M37.2901 67.4997C34.1475 67.4997 31.0538 66.7757 28.275 65.3322C20.2461 61.1772 15.9448 52.9906 17.0474 43.9757C17.4824 40.3944 18.5174 35.2681 22.4137 32.0768C23.3062 31.3418 24.5249 31.1093 25.6275 31.4505C26.8012 31.8068 27.7162 32.7218 28.0762 33.8993C28.395 34.9381 28.7625 35.8006 29.2387 36.5618C30.0075 30.1343 33.0675 22.0942 39.9414 15.9141C40.9089 15.0441 42.2701 14.7629 43.4962 15.2054C44.7487 15.6516 45.6562 16.7579 45.8627 18.0854C46.5902 22.7429 49.0803 26.433 51.7203 30.3368C56.0888 36.7981 60.6004 43.4807 56.5878 54.4156C54.6488 59.6846 50.3928 63.9297 44.9027 66.0597C42.4239 67.0232 39.8439 67.4997 37.2901 67.4997ZM24.4874 34.9943C22.6162 36.7568 21.3374 39.7606 20.7674 44.4294C19.8486 51.9631 23.2987 58.5331 29.9963 62.0057C34.0838 64.1207 39.0188 64.3272 43.5412 62.5682C48.0262 60.8246 51.4953 57.3856 53.0588 53.1256C56.4153 43.9907 52.8003 38.6394 48.6077 32.4368C45.8552 28.3642 43.0087 24.153 42.1501 18.6629C34.8338 25.5442 32.4975 34.9043 32.8088 40.8369C32.85 41.5606 32.4675 42.2394 31.83 42.5844C31.2038 42.9294 30.42 42.8807 29.835 42.4532C27.0412 40.4169 25.4925 38.2569 24.4874 34.9943Z" fill="white"/>
<path d="M37.5004 90C37.3391 90 37.1779 89.9815 37.0241 89.9365C36.6529 89.8425 0 79.7999 0 45.6708V14.9992C0 14.2155 0.491255 13.5105 1.22626 13.2405L36.8516 0.115314C37.2679 -0.0384379 37.7292 -0.0384379 38.1492 0.115314L73.7744 13.2405C74.5094 13.5105 75.0009 14.2155 75.0009 14.9992V45.6708C75.0009 79.8039 38.3479 89.8425 37.9767 89.94C37.8229 89.9815 37.6617 90 37.5004 90ZM3.75004 16.308V45.6708C3.75004 75.2288 33.1879 84.9189 37.5004 86.179C41.813 84.9189 71.2509 75.2288 71.2509 45.6708V16.308L37.5004 3.87286L3.75004 16.308Z" fill="white"/>
</svg>
