<svg width="90" height="90" viewBox="0 0 90 90" fill="none" xmlns="http://www.w3.org/2000/svg">
<path d="M90 8.93699C90.0055 7.71471 89.5191 6.54164 88.65 5.68204L84.3178 1.35006C83.4623 0.485116 82.2959 -0.00103492 81.0793 1.65424e-06H81.0647C79.8552 0.00074206 78.6969 0.487189 77.85 1.35006L58.2001 20.9998H19.5001V4.50004C19.5001 2.01465 17.4853 1.65424e-06 15 1.65424e-06H12C5.37568 0.00740573 0.00740411 5.37564 0 11.9999V78.3758C0.375388 84.9498 5.85086 90.0676 12.4351 89.9993H85.5C87.9851 89.9993 90 87.9845 90 85.4994V25.4999C90 23.0146 87.9851 20.9998 85.5 20.9998H79.8001L88.65 12.1499C89.511 11.3023 89.9974 10.1454 90 8.93699ZM53.6698 37.4998C53.3528 37.543 53.0332 37.4314 52.8123 37.1998C52.5888 36.9779 52.4786 36.6667 52.5119 36.3538L53.0803 31.2539C53.1045 31.1473 53.1344 31.042 53.1708 30.9389L59.0789 36.8473C58.9818 36.8684 58.8928 36.9164 58.7912 36.9283L53.6698 37.4998ZM61.5286 35.0502L54.9642 28.4847L71.3144 12.1349L77.8752 18.6944L61.5286 35.0502ZM73.4294 10.0124L75.6541 7.78939L82.2119 14.3488L79.9887 16.5732L73.4294 10.0124ZM3 11.9999C3.00503 7.03148 7.03152 3.00487 12 2.99998H15C15.8284 2.99998 16.5001 3.67153 16.5001 4.49989V64.4992C16.5001 65.3279 15.8285 65.9993 15 65.9993H12C8.55399 65.9983 5.27455 67.4818 3 70.07V11.9999ZM85.5 23.9998C86.3282 23.9998 87.0001 24.6713 87.0001 25.4999V85.4994C87.0001 86.3276 86.3287 86.9995 85.5 86.9995H12.4351C7.48319 87.0824 3.33481 83.2706 3 78.3293V77.9996C3.00503 73.0309 7.03152 69.0047 12 68.9997H15C17.4853 68.9997 19.4999 66.9848 19.4999 64.4997V23.9998H55.1998L51.7935 27.4063C50.8424 28.3433 50.2441 29.5799 50.0999 30.9072L49.5314 36.0176C49.4846 36.5161 49.532 37.0186 49.6709 37.4996H24C23.1716 37.4996 22.4999 38.1712 22.4999 38.9997C22.4999 39.828 23.1714 40.4996 24 40.4996H28.5001V80.9994C28.5001 81.8276 29.1716 82.4996 30.0001 82.4996C30.8286 82.4996 31.5002 81.8281 31.5002 80.9994V59.9997H48.0001V71.9995H37.5C36.6717 71.9995 36.0001 72.6709 36.0001 73.4991C36.0001 74.3278 36.6717 74.9993 37.5 74.9993H67.5C69.1569 74.9993 70.4998 73.6564 70.4998 71.9995V49.4997C70.4998 48.6713 69.8283 47.9996 69.0001 47.9996C68.1719 47.9996 67.5 48.6712 67.5 49.4997V56.9994H31.5V40.4997H53.5621C53.7082 40.5001 53.8549 40.4921 54 40.4758L59.1254 39.8923C60.4264 39.7447 61.6409 39.1666 62.5758 38.2498L76.8074 23.9999H85.5V23.9998ZM67.5 59.9997V71.9995H51.0001V59.9997H67.5ZM86.535 10.0229L84.333 12.2263L77.7751 5.66839L79.9786 3.46495C80.2668 3.16909 80.6617 3.00146 81.0748 2.99998C81.4955 3.00101 81.8979 3.17072 82.1922 3.47103L86.5304 7.80001C86.8323 8.09706 87.0016 8.50312 87.0001 8.92647C86.9986 9.3396 86.8313 9.73484 86.535 10.0229Z" fill="white"/>
</svg>
