<svg width="90" height="90" viewBox="0 0 90 90" fill="none" xmlns="http://www.w3.org/2000/svg">
<path d="M34.4098 46.7295C34.1627 46.544 33.9062 46.3749 33.5798 46.1448V86.4284H85.887V85.4187C85.887 83.1644 85.8637 49.6765 85.8987 47.4222C85.9197 45.9569 87.3653 45.1045 88.5171 45.863C88.8622 46.0978 89.0953 46.4947 89.3775 46.8164V90H1.24041C0.293782 89.4834 0 88.6921 0 87.6119C0.0373057 80.9618 0.0186528 74.3116 0.0186528 67.6521C0.0186528 65.9637 0.596891 65.3861 2.27798 65.3837H8.04637V46.652C8.04637 42.0472 10.1868 39.072 14.5376 37.5621C14.6601 37.497 14.7661 37.4042 14.847 37.2909C14.9279 37.1776 14.9816 37.047 15.0039 36.9093C15.0598 36.0639 15.0039 35.2115 15.0319 34.3615C15.0458 32.9957 15.5907 31.6898 16.5497 30.724C17.5087 29.7582 18.8053 29.2094 20.1614 29.1954C25.221 29.1578 30.2813 29.1578 35.3425 29.1954C36.0215 29.1969 36.6936 29.3332 37.3203 29.5964C37.947 29.8596 38.5161 30.2446 38.9951 30.7293C39.474 31.2141 39.8534 31.7891 40.1117 32.4216C40.3699 33.0541 40.5018 33.7316 40.5 34.4155C40.5326 38.2524 40.5326 42.0879 40.5 45.9217C40.4702 46.2488 40.5344 46.5776 40.6849 46.869C40.8353 47.1604 41.0657 47.4022 41.3487 47.5655L34.4098 46.7295ZM65.4109 45.283C66.0824 38.0951 66.7446 30.3225 67.4184 23.0994C64.1541 24.7643 60.8503 25.0414 57.4205 23.9354C56.0961 26.4715 54.0839 28.0119 51.2114 28.0964C48.3389 28.181 46.2264 26.7838 44.7365 24.2688C43.1837 24.6492 41.6098 24.7573 40.036 24.2947C36.6715 23.3014 34.4984 21.087 33.7617 17.6586C33.0085 14.148 34.1044 11.1329 36.9163 8.91856C39.7282 6.70419 42.8643 6.4224 46.0982 7.94874C46.6997 8.23288 47.0821 8.14599 47.6744 7.92761C48.8238 7.50023 50.0666 7.33586 51.2604 7.0212C51.6078 6.92962 52.0251 6.78638 52.228 6.51868C53.9813 4.24091 56.229 3.23118 59.0922 3.59046C59.3907 3.62803 59.8104 3.34155 60.0459 3.08324C62.3495 0.558914 65.187 -0.504827 68.5329 0.23486C71.7272 0.939324 73.8956 2.94 74.9472 6.07017C75.2479 6.96719 75.2946 7.94874 75.4135 8.91151C75.4478 9.45878 75.4517 10.0076 75.4251 10.5553C76.015 10.5553 76.5303 10.5553 77.0456 10.5553C78.1298 10.5858 78.8106 11.1846 78.9109 12.246C79.5031 18.5079 80.0883 24.7745 80.6666 31.0458C81.1329 36.1179 81.5992 41.1924 82.1029 46.2599C82.1906 46.6153 82.4025 46.9271 82.6997 47.1381L65.4109 45.283ZM62.7389 5.40093C64.0087 6.61782 64.7868 8.26464 64.9236 10.0246C65.0308 11.3372 64.3826 12.2248 63.3031 12.2929C62.2632 12.361 61.5614 11.6167 61.4378 10.3251C61.3916 9.61958 61.1356 8.94437 60.7031 8.38736C60.2706 7.83035 59.6817 7.41732 59.013 7.20201C57.1687 6.61026 55.4013 7.53546 54.6319 9.49387C54.1655 10.668 53.4124 11.1517 52.3446 10.7995C50.7264 10.2688 49.3974 10.6328 48.2223 11.8468C47.5228 12.5677 46.6694 12.5771 45.858 11.983C45.5992 11.7951 45.3591 11.5791 45.0933 11.403C44.1233 10.7667 42.9711 10.4727 41.8174 10.567C40.6637 10.6613 39.5736 11.1386 38.7183 11.924C37.8629 12.7095 37.2906 13.7586 37.091 14.907C36.8915 16.0553 37.0761 17.2378 37.6158 18.2691C38.7187 20.3825 41.0992 21.505 43.3422 20.932C43.671 20.8498 43.9088 20.4459 44.2236 20.2463C44.7365 19.9199 45.2798 19.408 45.8091 19.408C46.2987 19.408 46.8536 19.9105 47.2523 20.3191C47.4715 20.554 47.4505 21.0236 47.4855 21.4017C47.5665 22.2627 47.9591 23.0636 48.5887 23.6518C49.2182 24.24 50.0407 24.5744 50.8993 24.5912C51.7578 24.608 52.5926 24.3061 53.2444 23.743C53.8962 23.18 54.3195 22.395 54.4337 21.5379C54.5425 20.6869 54.3364 19.8254 53.8548 19.1176C53.3731 18.4099 52.6496 17.9056 51.8223 17.7009C51.4609 17.6069 51.0738 17.614 50.7031 17.5482C50.2828 17.48 49.9015 17.2601 49.6304 16.9296C49.3592 16.599 49.2167 16.1804 49.2295 15.7519C49.2487 15.3227 49.4244 14.9158 49.723 14.609C50.0216 14.3023 50.422 14.1172 50.8477 14.0893C51.2241 14.065 51.6021 14.0855 51.9738 14.1504C55.0259 14.6529 57.1453 16.7146 57.8238 19.7626C57.8845 20.035 58.0803 20.4013 58.3041 20.4929C61.3865 21.7468 65.299 21.0142 67.2925 18.6331C67.6322 18.2098 67.8521 17.7019 67.929 17.1631C68.1459 15.5687 68.2624 13.9625 68.4186 12.361C68.5329 11.1869 69.1741 10.5787 70.3539 10.5529C70.8622 10.5529 71.3728 10.5529 71.8694 10.5529C72.1026 7.01415 71.0394 4.87728 68.6238 3.89807C67.6115 3.48698 66.4956 3.41103 65.4376 3.68122C64.3795 3.95141 63.4344 4.55371 62.7389 5.40093ZM37.0119 44.2897C37.0119 40.8519 37.0352 37.6043 36.9979 34.3591C36.9863 33.3447 36.2075 32.7154 35.1117 32.7154C33.2464 32.6989 31.3811 32.7154 29.5298 32.7154C26.4987 32.7154 23.4793 32.7154 20.4552 32.7154C19.3104 32.7154 18.5899 33.3635 18.5339 34.4272C18.492 35.4182 18.5339 36.4138 18.5339 37.386C18.6272 37.4351 18.7238 37.4774 18.8231 37.5128C22.5187 38.398 25.6407 41.857 25.5381 46.8093C25.4168 52.6658 25.5101 58.5246 25.5101 64.3834V65.3485H30.0474V64.2542C30.0474 57.1657 30.0474 50.0781 30.0474 42.9911C30.0474 42.1387 30.2106 41.4155 31.0197 40.9952C31.8288 40.5748 32.5212 40.8848 33.1857 41.3967C34.3889 42.3242 35.6246 43.2424 37.0119 44.2897ZM21.9497 65.3532C21.9755 65.2474 21.9935 65.1399 22.0034 65.0315C22.0034 58.6467 22.0174 52.2619 21.9847 45.8771C21.9601 45.2054 21.8082 44.5446 21.537 43.9304C21.073 42.8452 20.2558 41.9514 19.22 41.3965C18.1841 40.8416 16.9915 40.6587 15.8386 40.8778C13.3181 41.3826 11.5554 43.442 11.5461 46.025C11.5251 52.3511 11.5461 58.6772 11.5461 65.0033C11.5553 65.1248 11.5724 65.2456 11.5974 65.3649L21.9497 65.3532ZM8.04637 86.4495V85.4116C8.04637 81.7813 8.04637 78.1502 8.04637 74.5183C8.04637 73.0741 8.6899 72.4284 10.1262 72.426C14.5453 72.426 18.9645 72.426 23.3837 72.426C24.8689 72.426 25.4821 73.0671 25.4961 74.5746C25.4961 78.2081 25.4961 81.8392 25.4961 85.468V86.4284H29.9681V68.9788H3.55803V86.4495H8.04637ZM21.9474 86.4495V76.0094H11.5858V86.4472L21.9474 86.4495ZM78.3536 43.8811C77.9619 39.6872 77.5889 35.6882 77.2135 31.6704H70.1977C70.1565 31.7788 70.1238 31.8903 70.0997 32.0038L78.3536 43.8811ZM76.2225 21.0518C75.9894 18.6801 75.7865 16.4164 75.572 14.1128H71.7668C71.5523 16.4375 71.3471 18.72 71.114 21.0541L76.2225 21.0518ZM70.7829 24.6563C70.6803 25.8046 70.5801 26.92 70.4751 28.0847H76.8684C76.7611 26.9106 76.6609 25.7999 76.5583 24.6563H70.7829Z" fill="white"/>
<path d="M54.471 63.6671C54.471 64.7778 54.4873 65.8885 54.471 66.9992C54.45 68.2062 53.7715 68.8942 52.5591 68.9036C50.3534 68.9193 48.1477 68.9193 45.942 68.9036C44.6899 68.9036 44.0161 68.1992 44.0091 66.9335C43.9951 64.7418 43.9951 62.5501 44.0091 60.3585C44.0091 59.0388 44.6876 58.3742 46.0073 58.3672C48.1834 58.3547 50.3596 58.3547 52.5358 58.3672C53.7902 58.3672 54.4547 59.0599 54.471 60.335C54.4827 61.4457 54.471 62.5564 54.471 63.6671ZM50.913 65.3602V61.9224H47.5438V65.3602H50.913Z" fill="white"/>
<path d="M68.4326 63.6953C68.4326 64.8083 68.4513 65.919 68.4326 67.0297C68.4093 68.1921 67.7331 68.8895 66.5813 68.9083C64.3166 68.9287 62.0526 68.9287 59.7894 68.9083C58.6888 68.8966 57.987 68.1921 57.9777 67.0885C57.9528 64.7794 57.9528 62.4703 57.9777 60.1612C57.9664 59.9251 58.0042 59.6892 58.0886 59.4686C58.173 59.2479 58.3022 59.0475 58.4678 58.88C58.6335 58.7125 58.832 58.5816 59.0507 58.4957C59.2694 58.4099 59.5035 58.3709 59.7381 58.3813C62.0293 58.3547 64.322 58.3547 66.6163 58.3813C67.7168 58.393 68.4047 59.0857 68.4303 60.1988C68.4536 61.3565 68.4326 62.5259 68.4326 63.6953ZM64.8769 65.3578V61.92H61.5054V65.3578H64.8769Z" fill="white"/>
<path d="M82.3966 63.6789C82.3966 64.759 82.4083 65.8416 82.3966 66.9217C82.3803 68.1968 81.7158 68.8942 80.4731 68.9036C78.2658 68.9193 76.0593 68.9193 73.8536 68.9036C72.6109 68.9036 71.9394 68.1992 71.9324 66.9241C71.9184 64.7324 71.9184 62.5408 71.9324 60.3491C71.9324 59.0365 72.6132 58.3766 73.9399 58.3696C76.0865 58.357 78.2347 58.357 80.3844 58.3696C81.7438 58.3696 82.3873 59.0435 82.3966 60.4383C82.4036 61.5232 82.3966 62.5963 82.3966 63.6789ZM78.8386 65.3602V61.9224H75.4694V65.3602H78.8386Z" fill="white"/>
<path d="M54.471 77.7047C54.471 78.8154 54.485 79.9261 54.471 81.0368C54.45 82.2556 53.7715 82.953 52.5824 82.9647C50.3471 82.9804 48.1119 82.9804 45.8767 82.9647C44.7109 82.9647 44.0114 82.2603 44.0114 81.1096C43.9881 78.8303 43.9881 76.5502 44.0114 74.2693C44.0114 73.1563 44.7109 72.4471 45.8067 72.4354C48.101 72.4103 50.3945 72.4103 52.6873 72.4354C53.7738 72.4494 54.4453 73.168 54.4686 74.2857C54.492 75.4035 54.471 76.5635 54.471 77.7047ZM50.9502 76.0093H47.5391V79.3978H50.9502V76.0093Z" fill="white"/>
<path d="M63.1562 82.9694C62.0813 82.9694 61.0065 82.9812 59.9339 82.9694C58.6655 82.953 57.9777 82.2838 57.9684 81.0322C57.9528 78.8108 57.9528 76.5886 57.9684 74.3656C57.9684 73.1117 58.6679 72.4377 59.9316 72.4307C62.1078 72.4166 64.2839 72.4166 66.4601 72.4307C67.7658 72.4307 68.4233 73.1163 68.428 74.4525C68.4404 76.6144 68.4404 78.7779 68.428 80.9429C68.428 82.312 67.7565 82.9601 66.3762 82.9694C65.3036 82.9765 64.2287 82.9694 63.1562 82.9694ZM61.5241 75.9741V79.4119H64.8979V75.9741H61.5241Z" fill="white"/>
<path d="M77.1249 82.9694C76.022 82.9694 74.9192 82.9859 73.8163 82.9694C72.6179 82.9483 71.951 82.265 71.9301 81.0415C71.913 78.8201 71.913 76.5987 71.9301 74.3773C71.9301 73.1163 72.6295 72.44 73.8863 72.433C76.0624 72.4189 78.2386 72.4189 80.4148 72.433C81.7228 72.433 82.385 73.1163 82.392 74.4478C82.4044 76.6113 82.4044 78.774 82.392 80.9359C82.392 82.3096 81.7228 82.96 80.3448 82.9718C79.2746 82.9765 78.1998 82.9694 77.1249 82.9694ZM78.8619 79.4166V75.9905H75.4764V79.4166H78.8619Z" fill="white"/>
<path d="M40.5023 60.1519C40.4955 60.5001 40.3858 60.8384 40.1872 61.1235C39.9885 61.4086 39.71 61.6276 39.3872 61.7525C39.0644 61.8774 38.712 61.9026 38.3749 61.8248C38.0378 61.7471 37.7314 61.5699 37.4948 61.3159C37.2582 61.0619 37.1021 60.7426 37.0465 60.3988C36.991 60.0551 37.0384 59.7024 37.1828 59.386C37.3271 59.0695 37.5619 58.8035 37.8571 58.6221C38.1522 58.4406 38.4944 58.3519 38.8399 58.3672C39.2916 58.3926 39.7163 58.5921 40.0259 58.9244C40.3354 59.2567 40.506 59.6963 40.5023 60.1519Z" fill="white"/>
<path d="M37.0259 67.1754C37.0208 66.8271 37.119 66.4851 37.3078 66.1933C37.4966 65.9014 37.7676 65.6729 38.086 65.5369C38.4045 65.4009 38.7559 65.3636 39.0955 65.4298C39.4351 65.496 39.7474 65.6626 39.9925 65.9085C40.2376 66.1543 40.4043 66.4681 40.4714 66.8098C40.5385 67.1516 40.5029 67.5057 40.3692 67.827C40.2354 68.1482 40.0096 68.422 39.7206 68.6134C39.4316 68.8048 39.0925 68.905 38.7466 68.9013C38.294 68.8929 37.8622 68.7086 37.5415 68.3869C37.2208 68.0653 37.036 67.6311 37.0259 67.1754Z" fill="white"/>
<path d="M38.7583 75.9319C38.4124 75.9308 38.0747 75.8259 37.7884 75.6306C37.502 75.4353 37.2799 75.1584 37.1505 74.8353C37.0212 74.5123 36.9904 74.1577 37.0621 73.817C37.1338 73.4762 37.3047 73.1647 37.5531 72.9222C37.8015 72.6798 38.1159 72.5174 38.4564 72.4559C38.7968 72.3944 39.1477 72.4364 39.4643 72.5767C39.7809 72.7171 40.0487 72.9492 40.2336 73.2436C40.4185 73.538 40.5121 73.8812 40.5024 74.2294C40.4855 74.6849 40.2947 75.1162 39.9698 75.4334C39.6449 75.7506 39.2108 75.9292 38.7583 75.9319Z" fill="white"/>
<path d="M38.7326 79.4612C39.0785 79.4547 39.4184 79.5522 39.7089 79.7412C39.9995 79.9302 40.2275 80.2021 40.3638 80.5223C40.5002 80.8424 40.5386 81.1962 40.4743 81.5385C40.41 81.8808 40.2458 82.196 40.0027 82.4438C39.7596 82.6916 39.4487 82.8608 39.1096 82.9298C38.7706 82.9988 38.4188 82.9644 38.0993 82.831C37.7798 82.6976 37.507 82.4713 37.3158 82.181C37.1246 81.8907 37.0237 81.5496 37.0259 81.2013C37.0335 80.7458 37.2151 80.3108 37.533 79.9867C37.8509 79.6627 38.2805 79.4745 38.7326 79.4612Z" fill="white"/>
<path d="M31.936 46.7388H88.2513" stroke="white" stroke-width="4" stroke-miterlimit="10" stroke-linecap="round"/>
</svg>
