<svg width="90" height="91" viewBox="0 0 90 91" fill="none" xmlns="http://www.w3.org/2000/svg">
<path d="M88.5584 0C89.658 0.360987 90.0016 1.13996 89.9997 2.25522C89.9749 14.2248 89.9997 26.1944 89.9787 38.164C89.9787 43.2406 85.9697 47.8175 80.8783 48.2868C77.5699 48.5889 74.2233 48.4768 70.892 48.5167C68.7272 48.5433 68.7252 48.5167 68.7252 50.6579C68.7252 60.5224 68.7252 70.3862 68.7252 80.2494C68.7252 81.8947 68.7882 81.9593 70.4262 81.9593C71.2891 81.9593 72.1539 81.9384 73.0149 81.9802C74.1374 82.0334 74.733 82.5939 74.7693 83.6997C74.8113 85.5641 74.8113 87.4299 74.7693 89.2969C74.7483 90.2715 74.2806 90.737 73.3089 90.9118C72.957 90.971 72.6005 90.999 72.2436 90.9954C66.8868 90.9954 61.5294 90.9954 56.1713 90.9954C55.933 90.9983 55.6947 90.9888 55.4574 90.9669C54.205 90.8358 53.7602 90.3969 53.7392 89.1525C53.7163 87.3792 53.7163 85.6021 53.7392 83.8213C53.7564 82.4742 54.2146 82.0201 55.5814 81.9726C56.6219 81.9365 57.6642 81.9422 58.7066 81.9555C59.4511 81.9555 59.8023 81.6306 59.7985 80.8859C59.789 78.9004 59.8119 76.9169 59.7871 74.9315C59.7756 74.1126 59.5408 73.9644 58.7829 74.295C56.5205 75.3057 54.0592 75.7985 51.5801 75.737C50.5797 75.7085 50.3659 75.9555 50.343 76.9359C50.3182 77.9714 50.343 79.0087 50.3239 80.0461C50.2953 81.2696 49.8562 81.7427 48.6535 81.756C45.8256 81.7788 42.9983 81.7788 40.1716 81.756C38.9193 81.7465 38.4535 81.2791 38.4 80.0252C38.3542 78.9916 38.358 77.9524 38.379 76.9169C38.3962 76.1037 38.0678 75.6971 37.2221 75.7275C34.7425 75.808 32.2774 75.3225 30.0155 74.3083C29.3225 74.0081 29.0781 74.2589 29.08 74.9372C29.08 76.9207 29.08 78.9061 29.08 80.8897C29.08 81.6363 29.4275 81.9688 30.1701 81.9593C31.1819 81.9479 32.1937 81.9441 33.2055 81.9745C34.5418 82.0144 35.1241 82.5768 35.1393 83.8745C35.1603 85.5844 35.1642 87.3095 35.1393 89.0271C35.1203 90.319 34.6144 90.8719 33.3067 90.9498C32.06 91.0239 30.8077 90.9935 29.5573 90.9954C25.421 90.9954 21.2847 90.9954 17.1485 90.9954C16.7319 91.003 16.3152 90.9897 15.8999 90.9555C14.5961 90.8206 14.1074 90.3019 14.0959 89.01C14.0787 87.262 14.0749 85.5141 14.0959 83.7662C14.115 82.5445 14.6018 82.0391 15.8293 81.9802C16.8392 81.9308 17.8529 81.9669 18.8647 81.9498C19.9758 81.9327 20.1438 81.7598 20.1533 80.6351C20.1667 79.0961 20.1533 77.5553 20.1533 76.0144V41.6256C20.1533 41.3292 20.1533 41.0329 20.1533 40.7365C20.138 39.435 20.0082 39.2982 18.7292 39.2849C17.7174 39.2849 16.7056 39.3001 15.6938 39.2678C14.5884 39.2336 14.1035 38.7757 14.0978 37.6757C14.0774 33.7947 14.0774 29.9144 14.0978 26.0348C14.0978 24.8834 14.5999 24.4236 15.7491 24.3799C16.7304 24.3419 17.7135 24.3666 18.6948 24.359C19.9987 24.3476 20.1438 24.2127 20.1476 22.9379C20.1476 20.0633 20.2908 17.183 20.117 14.3198C19.8498 9.87205 23.4617 5.83089 28.3259 6.21848C28.828 6.25838 29.3377 6.21848 29.8532 6.21848C30.5023 6.21848 30.8459 5.89169 30.8573 5.23622C30.8573 5.05952 30.8688 4.88093 30.8726 4.70423C30.9013 3.33248 31.0521 3.18429 32.4342 3.21279C33.5357 3.23179 33.6904 3.39138 33.7171 4.52944C33.7553 6.19378 33.7916 6.23938 35.4352 6.23938C37.1725 6.23938 37.1801 6.23938 37.5982 4.57884C37.8216 3.68777 38.0774 2.8043 38.2606 1.90563C38.4439 1.00696 38.8944 0.322989 39.8089 0.0170994H49.0964C49.9555 0.355288 50.3678 1.01456 50.553 1.88853C50.7611 2.8746 51.0341 3.84546 51.2823 4.82203C51.6259 6.16718 51.708 6.23938 53.0997 6.23748C54.877 6.23748 55.255 6.43887 55.2149 4.28055C55.2149 3.94616 55.5471 3.39518 55.8411 3.30018C57.3683 2.8157 57.9907 3.30018 58.0231 4.87713C58.0231 4.93603 58.0231 4.99492 58.0231 5.05382C57.9735 5.87079 58.3343 6.26978 59.1781 6.24128C59.8615 6.21658 60.5469 6.24128 61.2322 6.24128C64.9721 6.26978 67.996 8.80429 68.5706 12.4712C68.7348 13.5161 68.7119 14.5953 68.7329 15.6592C68.7462 16.4002 69.0746 16.7422 69.821 16.7346C70.8328 16.7346 71.8465 16.7156 72.8564 16.7574C74.1928 16.8144 74.7788 17.3711 74.7922 18.6782C74.8189 21.4027 74.8189 24.126 74.7922 26.848C74.7807 28.157 74.2023 28.7175 72.8622 28.7764C71.942 28.8182 71.018 28.7878 70.0959 28.8011C68.9085 28.8163 68.7424 28.9683 68.7386 30.131C68.7272 32.7909 68.7272 35.4566 68.7386 38.1279C68.7386 39.3077 68.9085 39.473 70.0749 39.4768C72.8431 39.4863 75.6112 39.4768 78.3793 39.4768C80.8172 39.4768 81.0672 39.2222 81.0672 36.7561C81.0672 25.3236 81.0641 13.891 81.0577 2.45851C81.0577 1.31855 81.2677 0.395186 82.4876 0.0056998L88.5584 0ZM44.5414 27.1899H24.7255C23.0703 27.1899 23.0073 27.2545 23.0073 28.879C23.0073 38.9752 23.0073 49.0727 23.0073 59.1715C23.0033 60.9764 23.3582 62.7643 24.0515 64.4321C24.7449 66.0999 25.763 67.6146 27.0473 68.889C28.3315 70.1634 29.8565 71.1723 31.5343 71.8575C33.2121 72.5427 35.0096 72.8907 36.8231 72.8814C41.9139 72.8916 47.0015 72.8916 52.086 72.8814C52.6214 72.8866 53.1565 72.8555 53.6877 72.7883C60.8981 71.7795 65.8617 66.1272 65.8731 58.8371C65.8979 48.8283 65.8731 38.8194 65.8731 28.8182C65.8731 27.2982 65.7777 27.1994 64.2619 27.1994L44.5414 27.1899ZM44.402 24.3571C51.0977 24.3571 57.7921 24.3571 64.4852 24.3571C65.6517 24.3571 65.8636 24.1994 65.8674 23.2324C65.8827 20.0633 65.9304 16.8942 65.8483 13.7327C65.7739 10.8828 63.8228 9.07028 60.9611 9.06648C49.9523 9.05888 38.9434 9.05888 27.9346 9.06648C24.8248 9.06648 23.0226 10.8904 23.0092 14.0063C22.9959 16.9379 23.0092 19.8695 23.0092 22.803C23.0092 24.2583 23.1181 24.3647 24.588 24.3647C31.1908 24.3622 37.7955 24.3597 44.402 24.3571ZM87.1399 21.3363V4.99682C87.1399 3.01709 87.0598 2.943 85.0801 3.02279C85.0209 3.02279 84.9617 3.02279 84.9025 3.02279C84.2344 3.02279 83.9213 3.35908 83.9213 4.01076C83.9213 4.36605 83.9117 4.72133 83.9117 5.07662C83.9117 15.6808 83.9117 26.2837 83.9117 36.8853C83.9117 37.3299 83.9117 37.7764 83.8945 38.2153C83.8357 39.3061 83.3631 40.334 82.5722 41.0915C81.7813 41.849 80.7311 42.2796 79.6336 42.2963C78.889 42.3134 78.1445 42.2963 77.4019 42.2963C74.901 42.2963 72.4021 42.3115 69.9012 42.2963C69.0727 42.2963 68.6813 42.6383 68.7291 43.4667C68.7405 43.6738 68.7291 43.8828 68.7291 44.0899C68.7424 45.3628 68.8799 45.5053 70.1838 45.5072C73.1912 45.5148 76.1973 45.5148 79.2021 45.5072C83.9747 45.5072 87.1342 42.359 87.1399 37.5883C87.145 32.1722 87.145 26.7549 87.1399 21.3363ZM24.5919 87.9954C26.7319 87.9954 28.8719 88.0049 31.012 87.9954C32.125 87.9954 32.2815 87.8054 32.3044 86.6864C32.3044 86.5686 32.3044 86.4508 32.3044 86.3311C32.3044 84.9232 32.1822 84.7959 30.7943 84.7902C28.8624 84.7902 26.9304 84.7902 24.9985 84.7902C22.7401 84.7902 20.4798 84.7902 18.2214 84.7902C17.1084 84.7902 16.9518 84.9802 16.9289 86.0993C16.9289 86.2171 16.9289 86.3368 16.9289 86.4546C16.9289 87.8662 17.0492 87.9916 18.4371 87.9954C20.4893 88.0011 22.5415 87.9973 24.5919 87.9954ZM64.2676 87.9954C66.4382 87.9954 68.6069 87.9821 70.7775 87.9954C71.6079 87.9954 71.9954 87.6534 71.9515 86.827C71.9401 86.5914 71.9515 86.3539 71.9515 86.1183C71.9324 84.9536 71.7797 84.7883 70.5961 84.7883C66.3746 84.7794 62.1537 84.7794 57.9334 84.7883C56.7517 84.7883 56.5971 84.9593 56.5799 86.1183C56.5799 86.3254 56.5799 86.5325 56.5799 86.7396C56.6085 87.7959 56.7708 87.9764 57.8475 87.984C59.9875 88.0049 62.1276 87.9954 64.2676 87.9935V87.9954ZM65.7777 68.7377C64.6914 69.8776 63.7827 70.7972 62.9141 71.7605C62.7434 72.0031 62.6575 72.2948 62.6697 72.5908C62.6506 75.3773 62.6506 78.1582 62.6697 80.9334C62.6697 81.205 62.8186 81.6933 62.9485 81.7104C63.7522 81.8187 64.5883 81.9194 65.3787 81.7959C65.604 81.7617 65.8502 80.9809 65.8559 80.5401C65.8941 76.9891 65.8789 73.44 65.8731 69.889C65.875 69.5775 65.8254 69.2697 65.7777 68.7358V68.7377ZM23.1658 68.827C23.0962 69.036 23.0464 69.251 23.0169 69.4692C23.0092 73.2868 23.0092 77.1037 23.0169 80.9201C23.0169 81.6211 23.3491 81.9593 24.0535 81.9479C24.3799 81.9479 24.7064 81.9593 25.0347 81.9479C26.037 81.9175 26.226 81.7465 26.2317 80.7263C26.2444 78.1234 26.2444 75.5192 26.2317 72.9137C26.2317 72.5983 26.2317 72.1918 26.0408 71.979C25.1397 70.9321 24.1871 69.9384 23.1658 68.8251V68.827ZM20.1495 31.8771C20.1495 30.6649 20.1495 29.4547 20.1495 28.2425C20.1495 27.5528 19.844 27.1899 19.1339 27.1994C18.8361 27.1994 18.5383 27.1899 18.2424 27.1994C17.1179 27.2222 16.9404 27.3894 16.9327 28.4914C16.9194 30.5604 16.9327 32.6276 16.9327 34.6966C16.9327 36.4065 17.0148 36.4768 18.7597 36.454C18.8494 36.454 18.9372 36.454 19.027 36.454C19.8116 36.4939 20.1724 36.1272 20.1609 35.3426C20.138 34.1798 20.1514 33.0284 20.1495 31.8752V31.8771ZM44.3753 6.22798H46.5173C48.6745 6.22798 48.7127 6.15388 48.1629 4.08296C47.972 3.32298 47.5596 2.99619 46.7788 3.01329C45.5608 3.03799 44.341 3.01329 43.1211 3.01329C40.8531 3.01329 40.876 3.01329 40.3969 5.20582C40.225 5.99429 40.5248 6.23558 41.2521 6.22608C42.2925 6.20708 43.3349 6.21848 44.3753 6.21848V6.22798ZM71.9439 22.7669H71.9554C71.9554 22.3527 71.9554 21.9398 71.9554 21.5281C71.9554 19.5541 71.8389 19.4648 69.8134 19.5579C69.0784 19.5921 68.7214 19.8885 68.731 20.6333C68.7424 21.7542 68.731 22.8752 68.731 23.9962C68.731 25.9607 68.8131 26.0386 70.7851 25.9569H70.9627C71.6175 25.9569 71.9515 25.6415 71.9496 24.9841C71.942 24.2317 71.9439 23.4946 71.9439 22.7574V22.7669ZM44.362 78.9156V78.9308H45.4348C47.5138 78.9308 47.594 78.8282 47.4985 76.7877C47.4642 76.0448 47.1434 75.7123 46.4046 75.7199C45.368 75.7313 44.3295 75.7199 43.291 75.7199C41.3151 75.7199 41.1433 75.4729 41.2464 78.0379C41.2693 78.6078 41.5671 78.9099 42.1417 78.9156C42.8786 78.9213 43.6212 78.9156 44.362 78.9156Z" fill="white"/>
<path d="M17.8743 9.86636C17.3016 10.3299 16.7804 10.8752 16.1428 11.2077C15.9366 11.3141 15.3792 10.9246 15.0833 10.6586C14.396 10.0488 13.7584 9.38378 13.1169 8.7245C12.6759 8.27042 12.277 8.25332 11.8283 8.7245C11.4023 9.17831 10.9491 9.60594 10.471 10.0051C9.70738 10.6092 9.03348 10.6358 8.27368 10.0412C6.00573 8.26092 3.76833 6.45978 1.50992 4.66625C1.10329 4.34516 1.03457 4.05827 1.3782 3.63458C2.95889 1.68715 2.50454 1.87904 4.22459 3.2299C5.62965 4.31476 7.03089 5.41292 8.39968 6.54908C9.00103 7.04686 9.47638 7.04686 10.0052 6.46928C10.4474 5.98931 10.9151 5.5333 11.4064 5.10323C12.0288 4.55225 12.7294 4.51045 13.3346 5.08613C14.7091 6.39519 16.0416 7.74604 17.3818 9.08929C17.5032 9.24927 17.6033 9.42426 17.6796 9.60987L17.8743 9.86636Z" fill="white"/>
<path d="M17.437 17.1621C17.0552 17.8574 16.7421 18.492 16.3279 19.062C16.2343 19.1874 15.717 19.1076 15.4574 18.9879C14.3539 18.4749 13.2524 17.9505 12.1948 17.3539C11.4312 16.9265 10.8718 17.031 10.3258 17.6807C9.96311 18.1101 9.51639 18.4654 9.13649 18.8796C8.51414 19.5617 7.77343 19.6852 6.94872 19.3622C4.81822 18.5243 2.69918 17.6693 0.572496 16.8334C0.016963 16.6149 -0.107125 16.2843 0.0837798 15.7181C0.713766 13.8581 0.715675 13.8448 2.56554 14.5781C3.83506 15.0835 5.12367 15.5471 6.36837 16.0981C7.19117 16.4781 7.81734 16.404 8.41487 15.6972C8.86998 15.1901 9.35443 14.7099 9.86575 14.259C10.0911 14.0176 10.3923 13.8597 10.7197 13.811C11.0471 13.7623 11.3815 13.8258 11.6679 13.9911C13.3383 14.8289 15.0202 15.6478 16.6849 16.499C16.9445 16.6434 17.143 16.9094 17.437 17.1621Z" fill="white"/>
<path d="M44.4806 30.3989C48.7352 30.3989 52.9918 30.3989 57.2502 30.3989C59.0753 30.3989 59.606 30.9138 59.6155 32.7168C59.6308 36.1823 59.6308 39.6484 59.6155 43.1152C59.6155 44.8859 59.0104 45.4692 57.1472 45.4749C51.1661 45.4901 45.1831 45.4749 39.2021 45.4749C36.7318 45.4749 34.2615 45.4882 31.7912 45.4749C29.7561 45.4578 29.2827 44.9657 29.2808 42.9309C29.2808 39.5249 29.2808 36.1184 29.2808 32.7111C29.2808 30.8739 29.7638 30.4027 31.6213 30.3989C35.9039 30.3989 40.1903 30.3989 44.4806 30.3989ZM44.4348 42.4863C48.1212 42.4863 51.8095 42.4863 55.4958 42.4863C56.5725 42.4863 56.7615 42.2963 56.7692 41.2494C56.7844 38.9999 56.7844 36.751 56.7692 34.5028C56.7692 33.4293 56.5783 33.2412 55.5245 33.2412C48.1517 33.2336 40.7777 33.2336 33.4024 33.2412C32.3009 33.2412 32.1329 33.4312 32.1272 34.5712C32.1157 36.732 32.1157 38.8923 32.1272 41.0519C32.1272 42.3476 32.2741 42.4939 33.5532 42.4958C37.174 42.4996 40.7987 42.4983 44.4272 42.492L44.4348 42.4863Z" fill="white"/>
<path d="M39.9888 16.7423C39.9944 15.5811 40.4583 14.4687 41.2803 13.6447C42.1023 12.8208 43.2167 12.3512 44.3833 12.3372C45.55 12.3233 46.6754 12.7661 47.5171 13.5701C48.3588 14.3742 48.8493 15.4752 48.883 16.6359C48.883 19.083 46.8461 21.1387 44.4292 21.1311C43.2571 21.1301 42.1329 20.6684 41.3012 19.8464C40.4695 19.0244 39.9978 17.9087 39.9888 16.7423ZM45.9908 16.6473C45.97 16.2291 45.784 15.836 45.4732 15.5538C45.1625 15.2716 44.7522 15.1231 44.3319 15.1406C43.9421 15.1566 43.5732 15.3204 43.3009 15.5984C43.0287 15.8765 42.8736 16.2477 42.8676 16.6359C42.8669 16.84 42.9065 17.0422 42.9843 17.231C43.0621 17.4199 43.1765 17.5916 43.3209 17.7365C43.4654 17.8813 43.6372 17.9964 43.8263 18.0752C44.0155 18.154 44.2184 18.195 44.4235 18.1957C44.6286 18.1965 44.8318 18.157 45.0215 18.0796C45.2113 18.0022 45.3838 17.8883 45.5294 17.7445C45.6749 17.6008 45.7906 17.4299 45.8698 17.2416C45.9489 17.0533 45.9901 16.8514 45.9908 16.6473Z" fill="white"/>
<path d="M26.2471 16.2635C26.2471 15.4655 26.2166 14.6637 26.2471 13.8676C26.2987 12.8151 26.753 12.3477 27.7934 12.2964C28.8912 12.2489 29.9927 12.2831 31.0942 12.2755C31.7452 12.2755 32.1003 12.5643 32.0964 13.2369C32.0964 13.5314 32.0964 13.8277 32.0964 14.1241C32.0964 14.7891 31.7624 15.1235 31.1056 15.0874C28.7461 14.9563 29.0992 15.5225 29.0706 17.2761C29.0706 17.5725 29.0706 17.8689 29.0706 18.1653C29.0534 19.3965 28.9007 19.5465 27.677 19.5503C26.396 19.5503 26.2414 19.406 26.228 18.1292C26.228 17.5079 26.228 16.8847 26.228 16.2635H26.2471Z" fill="white"/>
<path d="M44.3012 39.2773C43.738 39.2773 43.173 39.2906 42.6098 39.2773C41.6075 39.2488 41.4453 39.0759 41.4224 38.0537C41.4224 37.8162 41.4224 37.5806 41.4319 37.3432C41.4434 36.7732 41.7431 36.4692 42.3196 36.4673C43.6852 36.4673 45.0508 36.4673 46.4164 36.4673C46.9414 36.4673 47.2564 36.7352 47.2774 37.2767C47.2908 37.6566 47.2927 38.0366 47.2774 38.4261C47.2583 38.9581 46.9682 39.2488 46.4374 39.2583C45.7254 39.2716 45.0114 39.2583 44.2993 39.2583L44.3012 39.2773Z" fill="white"/>
<path d="M51.9868 39.2792C50.6657 39.2792 50.5207 39.1253 50.5302 37.7934C50.5397 36.568 50.6925 36.4407 52.1262 36.4502C53.3995 36.4597 53.5427 36.6041 53.5389 37.8865C53.535 39.169 53.3842 39.2849 51.9868 39.2792Z" fill="white"/>
<path d="M36.7699 39.2792C35.5061 39.2792 35.3438 39.1159 35.3457 37.8448C35.3476 36.5737 35.5061 36.4445 36.8042 36.4502C38.026 36.4502 38.1845 36.6155 38.1864 37.8353C38.1902 39.1102 38.026 39.2773 36.7699 39.2792Z" fill="white"/>
</svg>
