<svg width="216" height="84" viewBox="0 0 216 84" fill="none" xmlns="http://www.w3.org/2000/svg">
<g opacity="0.9">
<path opacity="0.9" d="M213.358 57.0756H32.4031V61.6507H213.358V57.0756Z" fill="#ED1C24"/>
</g>
<g opacity="0.9">
<path opacity="0.9" d="M213.358 11.0948V50.5949H208.793V15.7907L200.536 22.8248L200.4 22.9378L194.224 22.9573L194.072 22.8248L186.033 15.9777V50.5949H181.468V11.2741L186.033 11.2468L186.932 11.239L197.302 20.0735L207.809 11.126L208.793 11.1221L213.358 11.0948Z" fill="#ED1C24"/>
</g>
<g opacity="0.9">
<path opacity="0.9" d="M12.9854 15.9933L4.21042 22.5013L26.1575 38.5375L26.2237 38.5843V44.5116L26.1575 44.5584L13.1138 55.2908L0 45.1858V39.0052L13.1955 48.8685L22.0405 41.5499L0.202349 25.5917L0 25.4436V19.5669L0.0972833 19.4928L13.2072 10.2258L26.2237 19.8864V25.9073L12.9854 15.9933Z" fill="#ED1C24"/>
<path opacity="0.9" d="M10.5144 59.3164L0.0272369 52.7772V65.8556L10.5144 59.3164Z" fill="#ED1C24"/>
<path opacity="0.9" d="M15.7755 59.3748L26.3015 52.7733V65.9764L15.7755 59.3748Z" fill="#ED1C24"/>
<path opacity="0.9" d="M10.4521 6.54698L0.0272369 0V13.0979L10.4521 6.54698Z" fill="#ED1C24"/>
<path opacity="0.9" d="M15.7716 6.62492L26.3404 0.00389862V13.2498L15.7716 6.62492Z" fill="#ED1C24"/>
</g>
<g opacity="0.9">
<path opacity="0.9" d="M32.4031 11.617C36.3633 11.0475 40.3605 10.7765 44.3612 10.8064C51.0231 10.8064 55.3231 11.7924 58.3311 14.002C59.5201 14.8383 60.488 15.9519 61.1511 17.2467C61.8141 18.5415 62.1524 19.9785 62.1368 21.4336C62.1368 26.6088 58.1248 30.0382 53.0389 31.4333V31.6087C56.7629 32.6531 58.9848 35.4433 60.1289 39.5157C61.6854 44.9715 62.8528 48.7594 63.8568 50.2714H57.4088C56.6305 49.1647 55.5449 45.7938 54.1829 40.9186C52.7509 35.5096 50.1709 33.4753 44.5129 33.3H38.637V50.2714H32.4109L32.4031 11.617ZM38.6293 29.4692H45.0071C51.6691 29.4692 55.9029 26.5036 55.9029 22.0259C55.9029 16.9598 51.3889 14.758 44.797 14.6995C41.789 14.6995 39.641 14.9333 38.637 15.1672L38.6293 29.4692Z" fill="#ED1C24"/>
<path opacity="0.9" d="M77.1846 37.9569L73.122 50.2714H67.896L81.1887 11.0948H87.2864L100.638 50.2714H95.2403L91.0571 37.9569H77.1846ZM90.0259 34.0014L86.193 22.7235C85.3252 20.167 84.7415 17.8405 84.1617 15.5725H84.0528C83.4729 17.9107 82.8348 20.28 82.0798 22.665L78.2158 34.0014H90.0259Z" fill="#ED1C24"/>
<path opacity="0.9" d="M106.389 11.617C109.944 11.0805 113.534 10.8096 117.129 10.8064C124.386 10.8064 129.554 12.4899 132.978 15.6894C136.403 18.8888 138.492 23.421 138.492 29.7576C138.492 36.0941 136.52 41.3862 132.862 44.991C129.204 48.5957 123.165 50.6299 115.573 50.6299C112.509 50.6489 109.447 50.494 106.401 50.1662L106.389 11.617ZM111.448 46.2692C113.14 46.5043 114.849 46.6021 116.557 46.5615C127.355 46.5615 133.216 40.5133 133.216 29.9329C133.266 20.6892 128.044 14.8086 117.359 14.8086C115.373 14.7782 113.39 14.9532 111.44 15.3308L111.448 46.2692Z" fill="#ED1C24"/>
<path opacity="0.9" d="M150.571 37.9569L146.505 50.2714H141.283L154.575 11.0948H160.673L174.024 50.2714H168.627L164.444 37.9569H150.571ZM163.413 34.0014L159.58 22.7235C158.708 20.167 158.128 17.8405 157.548 15.5725H157.432C156.852 17.9107 156.214 20.28 155.459 22.665L151.626 34.0014H163.413Z" fill="#ED1C24"/>
</g>
</svg>
